#N canvas 322 179 663 514 10;
#X text 87 446 External to manipulate CKAS Mechatronics 6dof motion
simulator, f 62;
#X text 276 464 http://rmit.edu.au/art/research/ake;
#X text 402 482 http://tbrodel.me;
#X obj 85 75 loadbang;
#X obj 85 97 tgl 15 0 empty empty empty 17 7 0 10 -262144 -1 -1 1 1
;
#X obj 85 119 metro 50;
#X obj 161 145 hsl 128 15 -50 50 0 0 empty empty empty -2 -8 0 10 -262144
-1 -1 0 1;
#X floatatom 168 165 5 0 0 0 - - -, f 5;
#X obj 234 195 hsl 128 15 -50 50 0 0 empty empty empty -2 -8 0 10 -262144
-1 -1 0 1;
#X floatatom 241 215 5 0 0 0 - - -, f 5;
#X obj 307 235 hsl 128 15 -50 50 0 0 empty empty empty -2 -8 0 10 -262144
-1 -1 0 1;
#X floatatom 314 255 5 0 0 0 - - -, f 5;
#X obj 380 275 hsl 128 15 -0.17 0.17 0 0 empty empty empty -2 -8 0
10 -262144 -1 -1 0 1;
#X floatatom 387 295 5 0 0 0 - - -, f 5;
#X obj 453 325 hsl 128 15 -0.17 0.17 0 0 empty empty empty -2 -8 0
10 -262144 -1 -1 0 1;
#X floatatom 460 345 5 0 0 0 - - -, f 5;
#X obj 526 365 hsl 128 15 -0.17 0.17 0 0 empty empty empty -2 -8 0
10 -262144 -1 -1 0 1;
#X floatatom 533 385 5 0 0 0 - - -, f 5;
#X text 167 121 X/Surge (-50..50);
#X text 247 173 Y/Sway (-50..50);
#X text 314 215 Z/Heave (-50..50);
#X text 372 252 Pitch (-0.17..0.17);
#X text 452 302 Roll (-0.17..0.17);
#X text 29 30 min freq == 10hz;
#X text 29 50 max freq == 50hz;
#X text 8 12 Bang to send packet;
#X obj 85 420 tbrodel/ckas 127.0.0.1, f 63;
#X connect 3 0 4 0;
#X connect 4 0 5 0;
#X connect 5 0 26 0;
#X connect 6 0 7 0;
#X connect 6 0 26 1;
#X connect 8 0 9 0;
#X connect 8 0 26 2;
#X connect 10 0 11 0;
#X connect 10 0 26 3;
#X connect 12 0 13 0;
#X connect 12 0 26 4;
#X connect 14 0 15 0;
#X connect 14 0 26 5;
#X connect 16 0 17 0;
#X connect 16 0 26 6;
