#N canvas 962 47 956 1012 10;
#X obj 24 433 maxlib/scale, f 26;
#X obj 59 97 sel 0 1, f 10;
#X obj 59 364 unpack 0 0 0 0, f 16;
#X obj 24 29 inlet;
#X obj 139 152 pack 1 1;
#X obj 59 50 inlet;
#X obj 24 455 outlet;
#X obj 107 28 loadbang;
#X obj 107 50 t b b;
#X msg 107 72 0;
#X msg 59 323 127 0 50 -50;
#X msg 92 271 0 127 50 -50;
#X obj 59 292 cyclone/prepend set 127 0;
#X obj 92 249 cyclone/prepend set 0 127;
#X obj 139 120 tbrodel/posneg \$1;
#X connect 0 0 6 0;
#X connect 1 0 10 0;
#X connect 1 1 11 0;
#X connect 2 0 0 1;
#X connect 2 1 0 2;
#X connect 2 2 0 3;
#X connect 2 3 0 4;
#X connect 3 0 0 0;
#X connect 4 0 12 0;
#X connect 4 0 13 0;
#X connect 5 0 1 0;
#X connect 7 0 8 0;
#X connect 8 0 9 0;
#X connect 8 1 14 0;
#X connect 9 0 1 0;
#X connect 10 0 2 0;
#X connect 11 0 2 0;
#X connect 12 0 10 0;
#X connect 13 0 11 0;
#X connect 14 0 4 0;
#X connect 14 1 4 1;
