#N canvas 1282 47 316 1012 10;
#X obj 75 129 expr $f1 - ($f1 * 2);
#X obj 22 36 t b b, f 8;
#X obj 22 11 inlet;
#X obj 22 180 outlet;
#X obj 75 180 outlet;
#X obj 75 99 abs \$1;
#X obj 22 98 abs \$1;
#X obj 75 64 f \$1;
#X obj 22 66 f \$1;
#X connect 0 0 4 0;
#X connect 1 0 8 0;
#X connect 1 1 7 0;
#X connect 2 0 1 0;
#X connect 5 0 0 0;
#X connect 6 0 3 0;
#X connect 7 0 5 0;
#X connect 8 0 6 0;
