#N canvas 418 509 534 235 10;
#X floatatom 196 78 5 0 0 0 - - -, f 5;
#X floatatom 319 78 5 0 0 0 - - -, f 5;
#X floatatom 364 78 5 0 0 0 - - -, f 5;
#X floatatom 487 78 5 0 0 0 - - -, f 5;
#X floatatom 21 79 5 0 0 0 - - -, f 5;
#X floatatom 151 78 5 0 0 0 - - -, f 5;
#X obj 21 19 loadbang;
#X text 14 118 [posneg] - generate a positive/negative pair;
#X text 70 152 inlet: bang;
#X text 14 135 creation args: float to generate pair from;
#X text 57 165 outlets: L -> float (positive);
#X text 120 179 R -> float (negative);
#X text 65 193 author: tobias brodel <brittlehaus@gmail.com>;
#X text 59 207 license: 2-clause BSD;
#X obj 21 57 tbrodel/posneg 0.17;
#X obj 196 56 tbrodel/posneg -80;
#X obj 364 56 tbrodel/posneg 127;
#X connect 6 0 14 0;
#X connect 6 0 15 0;
#X connect 6 0 16 0;
#X connect 14 0 4 0;
#X connect 14 1 5 0;
#X connect 15 0 0 0;
#X connect 15 1 1 0;
#X connect 16 0 2 0;
#X connect 16 1 3 0;
