#N canvas 1 170 1351 349 10;
#X obj 8 45 metro 50;
#X obj 8 22 tgl 15 0 empty empty empty 17 7 0 10 -262144 -1 -1 1 1
;
#X obj 201 71 ctlin 1 1;
#X obj 201 166 maxlib/scale 0 127 -50 50;
#X obj 8 -3 loadbang;
#X obj 201 139 line;
#X obj 201 116 pack \$1 \$2;
#X obj 7 283 maxlib/scale 0 127 50 3000;
#X obj 7 305 s smooth;
#X obj 268 92 r smooth;
#X obj 394 166 maxlib/scale 0 127 -50 50;
#X obj 394 139 line;
#X obj 394 116 pack \$1 \$2;
#X obj 461 92 r smooth;
#X obj 394 71 ctlin 2 1;
#X obj 587 165 maxlib/scale 0 127 -50 50;
#X obj 587 138 line;
#X obj 587 115 pack \$1 \$2;
#X obj 654 91 r smooth;
#X obj 587 70 ctlin 3 1;
#X obj 780 139 line;
#X obj 780 116 pack \$1 \$2;
#X obj 847 92 r smooth;
#X obj 780 71 ctlin 4 1;
#X obj 974 139 line;
#X obj 974 116 pack \$1 \$2;
#X obj 1041 92 r smooth;
#X obj 1168 139 line;
#X obj 1168 116 pack \$1 \$2;
#X obj 1235 92 r smooth;
#X obj 7 261 ctlin 8 1;
#X obj 974 71 ctlin 5 1;
#X obj 1168 71 ctlin 6 1;
#X obj 780 166 maxlib/scale 0 127 -0.17 0.17;
#X obj 974 166 maxlib/scale 0 127 -0.17 0.17;
#X obj 1168 166 maxlib/scale 0 127 -0.17 0.17;
#X obj 9 225 ake/ckas 192.168.1.195, f 166;
#X connect 0 0 36 0;
#X connect 1 0 0 0;
#X connect 2 0 6 0;
#X connect 3 0 36 1;
#X connect 4 0 1 0;
#X connect 5 0 3 0;
#X connect 6 0 5 0;
#X connect 7 0 8 0;
#X connect 9 0 6 1;
#X connect 10 0 36 2;
#X connect 11 0 10 0;
#X connect 12 0 11 0;
#X connect 13 0 12 1;
#X connect 14 0 12 0;
#X connect 15 0 36 3;
#X connect 16 0 15 0;
#X connect 17 0 16 0;
#X connect 18 0 17 1;
#X connect 19 0 17 0;
#X connect 20 0 33 0;
#X connect 21 0 20 0;
#X connect 22 0 21 1;
#X connect 23 0 21 0;
#X connect 24 0 34 0;
#X connect 25 0 24 0;
#X connect 26 0 25 1;
#X connect 27 0 35 0;
#X connect 28 0 27 0;
#X connect 29 0 28 1;
#X connect 30 0 7 0;
#X connect 31 0 25 0;
#X connect 32 0 28 0;
#X connect 33 0 36 4;
#X connect 34 0 36 5;
#X connect 35 0 36 6;
