#N canvas 302 325 557 313 10;
#X obj 54 45 midi;
#X obj 54 69 touchosc;
#X obj 53 91 snd;
#N canvas 1 104 482 663 motion 0;
#X obj 4 37 tgl 15 0 empty empty empty 17 7 0 10 -262144 -1 -1 1 1
;
#X obj 4 60 metro 50;
#X obj 38 131 maxlib/scale 0 127 -50 50;
#X obj 73 228 maxlib/scale 0 127 -50 50;
#X obj 107 323 maxlib/scale 0 127 -50 50;
#X obj 142 418 maxlib/scale 0 127 -0.17 0.17;
#X obj 176 511 maxlib/scale 0 127 -0.17 0.17;
#X obj 211 606 maxlib/scale 0 127 -0.17 0.17;
#X obj 4 9 loadbang;
#X obj 38 80 r sway;
#X obj 211 554 r yaw;
#X obj 38 108 line \$1 \$2, f 17;
#X obj 96 80 maxlib/scale 0 127 50 3000;
#X obj 96 58 r smooth;
#X obj 73 206 line \$1 \$2, f 17;
#X obj 131 178 maxlib/scale 0 127 50 3000;
#X obj 131 156 r smooth;
#X obj 73 178 r surge;
#X obj 107 300 line \$1 \$2, f 17;
#X obj 165 272 maxlib/scale 0 127 50 3000;
#X obj 165 250 r smooth;
#X obj 107 272 r heave;
#X obj 142 394 line \$1 \$2, f 17;
#X obj 200 366 maxlib/scale 0 127 50 3000;
#X obj 200 344 r smooth;
#X obj 142 366 r pitch;
#X obj 176 490 line \$1 \$2, f 17;
#X obj 234 462 maxlib/scale 0 127 50 3000;
#X obj 234 440 r smooth;
#X obj 176 462 r roll;
#X obj 211 582 line \$1 \$2, f 17;
#X obj 269 554 maxlib/scale 0 127 50 3000;
#X obj 269 532 r smooth;
#X obj 4 628 ake/ckas 192.168.1.195, f 30;
#X connect 0 0 1 0;
#X connect 1 0 33 0;
#X connect 2 0 33 1;
#X connect 3 0 33 2;
#X connect 4 0 33 3;
#X connect 5 0 33 4;
#X connect 6 0 33 5;
#X connect 7 0 33 6;
#X connect 8 0 0 0;
#X connect 9 0 11 0;
#X connect 10 0 30 0;
#X connect 11 0 2 0;
#X connect 12 0 11 1;
#X connect 13 0 12 0;
#X connect 14 0 3 0;
#X connect 15 0 14 1;
#X connect 16 0 15 0;
#X connect 17 0 14 0;
#X connect 18 0 4 0;
#X connect 19 0 18 1;
#X connect 20 0 19 0;
#X connect 21 0 18 0;
#X connect 22 0 5 0;
#X connect 23 0 22 1;
#X connect 24 0 23 0;
#X connect 25 0 22 0;
#X connect 26 0 6 0;
#X connect 27 0 26 1;
#X connect 28 0 27 0;
#X connect 29 0 26 0;
#X connect 30 0 7 0;
#X connect 31 0 30 1;
#X connect 32 0 31 0;
#X restore 52 120 pd motion;
#N canvas 1 95 295 185 kill 0;
#X obj 16 16 r stop;
#X obj 217 16 r reset;
#X msg 16 56 63;
#X obj 16 98 s sway;
#X obj 76 98 s surge;
#X obj 136 98 s heave;
#X obj 16 128 s pitch;
#X obj 76 128 s roll;
#X obj 136 128 s yaw;
#X msg 217 69 0;
#X obj 217 96 s smooth;
#X connect 0 0 2 0;
#X connect 0 0 9 0;
#X connect 1 0 2 0;
#X connect 1 0 9 0;
#X connect 2 0 3 0;
#X connect 2 0 4 0;
#X connect 2 0 5 0;
#X connect 2 0 6 0;
#X connect 2 0 7 0;
#X connect 2 0 8 0;
#X connect 9 0 10 0;
#X restore 49 145 pd kill;
#X obj 321 135 r timeline;
#X obj 321 157 hsl 128 15 0 1 0 0 empty empty empty -2 -8 0 10 -262144
-1 -1 0 1;
#N canvas 876 413 373 337 pingback 1;
#X obj 36 226 osc/packOSC;
#X msg 36 204 send /ping;
#X obj 36 278 iemnet/udpsend;
#X obj 36 12 r reset;
#X obj 42 33 r stop;
#X msg 36 107 1;
#X obj 50 55 r load;
#X obj 112 55 r start;
#X msg 112 107 0;
#X obj 36 181 metro 1000;
#X msg 148 240 disconnect;
#X obj 36 136 change;
#X obj 148 185 sel 0 1;
#X obj 36 157 tgl 15 0 empty empty empty 17 7 0 10 -262144 -1 -1 1
1;
#X obj 52 80 loadbang;
#X obj 36 302 tgl 15 0 empty empty empty 17 7 0 10 -262144 -1 -1 1
1;
#X msg 171 209 connect 192.168.1.165 9000;
#X connect 0 0 2 0;
#X connect 1 0 0 0;
#X connect 2 0 15 0;
#X connect 3 0 5 0;
#X connect 4 0 5 0;
#X connect 5 0 11 0;
#X connect 6 0 5 0;
#X connect 7 0 8 0;
#X connect 8 0 11 0;
#X connect 9 0 1 0;
#X connect 10 0 2 0;
#X connect 11 0 12 0;
#X connect 11 0 13 0;
#X connect 12 0 10 0;
#X connect 12 1 16 0;
#X connect 13 0 9 0;
#X connect 14 0 5 0;
#X connect 16 0 2 0;
#X restore 51 165 pd pingback;
#X connect 5 0 6 0;
