#N canvas 618 425 346 246 10;
#X obj 12 7 r load_dir;
#X obj 12 135 soundfiler;
#X obj 12 157 outlet;
#X obj 12 101 cyclone/Append \$1;
#X msg 12 73 read -maxsize 2.646e+07 -resize \$1;
#X obj 12 35 makefilename %s/\$1.wav;
#X connect 0 0 5 0;
#X connect 1 0 2 0;
#X connect 3 0 1 0;
#X connect 4 0 3 0;
#X connect 5 0 4 0;
