#N canvas 610 430 346 246 10;
#X obj 12 7 r load_dir;
#X obj 12 135 soundfiler;
#X obj 12 157 outlet;
#X obj 12 101 cyclone/Append \$1;
#X msg 12 73 read -resize -maxsize 2.646e+07 \$1;
#X obj 12 35 makefilename /home/ake/en/pd/%s/\$1.wav;
#X obj 271 55 print fd;
#X obj 242 136 print readmess;
#X connect 0 0 5 0;
#X connect 1 0 2 0;
#X connect 3 0 1 0;
#X connect 3 0 7 0;
#X connect 4 0 3 0;
#X connect 5 0 4 0;
#X connect 5 0 6 0;
