#N canvas 769 376 670 504 10;
#X obj 85 201 cyclone/seq;
#X obj 269 220 print;
#X obj 91 260 route 176;
#X obj 91 233 zexy/repack 3;
#X obj 91 290 route 1 2 3 4 5 6 8;
#X obj 91 474 print sway;
#X obj 109 451 print surge;
#X obj 128 431 print heave;
#X obj 146 411 print pitch;
#X obj 165 391 print roll;
#X obj 183 368 print yaw;
#X obj 202 345 print smooth;
#X obj 169 167 cyclone/prepend read;
#X msg 60 139 stop;
#X obj 68 84 r reset;
#X obj 105 138 r start;
#X obj 173 91 r load_dir;
#X obj 12 51 r stop;
#X obj 32 163 bng 15 250 50 0 empty empty empty 17 7 0 10 -262144 -1
-1;
#X obj 206 222 s reset;
#X obj 322 345 s smooth;
#X obj 303 368 s yaw;
#X obj 285 391 s roll;
#X obj 266 411 s pitch;
#X obj 248 431 s heave;
#X obj 229 451 s surge;
#X obj 211 474 s sway;
#X msg 322 311 0;
#X obj 322 286 r reset;
#X msg 324 102 symbol merle;
#X obj 167 141 makefilename /home/ake/en/pd/%s/en.mid;
#X connect 0 0 3 0;
#X connect 0 1 19 0;
#X connect 2 0 4 0;
#X connect 3 0 2 0;
#X connect 4 0 5 0;
#X connect 4 0 26 0;
#X connect 4 1 6 0;
#X connect 4 1 25 0;
#X connect 4 2 7 0;
#X connect 4 2 24 0;
#X connect 4 3 8 0;
#X connect 4 3 23 0;
#X connect 4 4 9 0;
#X connect 4 4 22 0;
#X connect 4 5 10 0;
#X connect 4 5 21 0;
#X connect 4 6 11 0;
#X connect 4 6 20 0;
#X connect 12 0 1 0;
#X connect 12 0 0 0;
#X connect 13 0 0 0;
#X connect 14 0 13 0;
#X connect 15 0 0 0;
#X connect 16 0 30 0;
#X connect 17 0 13 0;
#X connect 18 0 0 0;
#X connect 27 0 20 0;
#X connect 28 0 27 0;
#X connect 29 0 30 0;
#X connect 30 0 12 0;
