#N canvas 0 95 1366 673 10;
#X obj 87 140 expr 44100 / $f1;
#X obj 105 116 s samples;
#X obj 87 242 phasor~;
#N canvas 0 50 450 250 (subpatch) 0;
#X array left 6.44301e+06 float 2;
#X coords 0 1 6.44301e+06 -1 200 140 1;
#X restore 885 34 graph;
#X obj 86 310 *~;
#X obj 104 279 r samples;
#X obj 86 352 tabread4~ left;
#X msg 144 208 0;
#X obj 87 160 cyclone/prepend set;
#X msg 87 185 0.00684463;
#X obj 86 404 *~ 1;
#X msg 264 214 0;
#X obj 167 186 r stop;
#X obj 10 130 r start;
#X obj 264 153 r reset;
#N canvas 0 50 450 250 (subpatch) 0;
#X array right 6.44301e+06 float 2;
#X coords 0 1 6.44301e+06 -1 200 140 1;
#X restore 882 198 graph;
#X obj 216 352 tabread4~ right;
#X obj 216 404 *~ 1;
#X obj 85 513 load_snd right;
#X obj 87 91 load_snd left;
#X obj 264 173 t b b;
#N canvas 0 50 450 250 (subpatch) 0;
#X array trans 6.44301e+06 float 2;
#X coords 0 1 6.44301e+06 -1 200 140 1;
#X restore 881 358 graph;
#N canvas 0 50 450 250 (subpatch) 0;
#X array red 6.44301e+06 float 2;
#X coords 0 1 6.44301e+06 -1 200 140 1;
#X restore 1118 35 graph;
#N canvas 0 50 450 250 (subpatch) 0;
#X array green 6.44301e+06 float 2;
#X coords 0 1 6.44301e+06 -1 200 140 1;
#X restore 1119 197 graph;
#N canvas 0 50 450 250 (subpatch) 0;
#X array blue 6.44301e+06 float 2;
#X coords 0 1 6.44301e+06 -1 200 140 1;
#X restore 1120 357 graph;
#X obj 85 543 load_snd trans;
#X obj 85 573 load_snd red;
#X obj 85 633 load_snd blue;
#X obj 85 603 load_snd green;
#X obj 348 404 *~ 1;
#X obj 348 352 tabread4~ trans;
#X obj 481 404 *~ 1;
#X obj 481 352 tabread4~ red;
#X obj 613 404 *~ 1;
#X obj 613 352 tabread4~ green;
#X obj 746 404 *~ 1;
#X obj 746 352 tabread4~ blue;
#X obj 305 225 tgl 15 0 empty empty empty 17 7 0 10 -262144 -1 -1 1
1;
#X obj 305 245 metro 20;
#X obj 305 267 snapshot~;
#X obj 305 199 loadbang;
#X obj 305 289 s timeline;
#X obj 549 135 loadbang;
#X msg 549 187 \; pd dsp 1;
#X obj 85 481 dac~ 5 6 1 2 3 4, f 95;
#X obj 549 160 delay 1000;
#X connect 0 0 8 0;
#X connect 2 0 4 0;
#X connect 2 0 39 0;
#X connect 4 0 6 0;
#X connect 4 0 16 0;
#X connect 4 0 30 0;
#X connect 5 0 4 1;
#X connect 6 0 10 0;
#X connect 7 0 2 0;
#X connect 8 0 9 0;
#X connect 9 0 2 0;
#X connect 10 0 44 0;
#X connect 11 0 2 1;
#X connect 12 0 7 0;
#X connect 13 0 9 0;
#X connect 14 0 20 0;
#X connect 16 0 17 0;
#X connect 17 0 44 1;
#X connect 19 0 0 0;
#X connect 19 0 1 0;
#X connect 20 0 11 0;
#X connect 20 1 7 0;
#X connect 29 0 44 2;
#X connect 30 0 29 0;
#X connect 31 0 44 3;
#X connect 32 0 31 0;
#X connect 33 0 44 4;
#X connect 34 0 33 0;
#X connect 35 0 44 5;
#X connect 36 0 35 0;
#X connect 37 0 38 0;
#X connect 38 0 39 0;
#X connect 39 0 41 0;
#X connect 40 0 37 0;
#X connect 42 0 45 0;
#X connect 45 0 43 0;
