#N canvas 541 261 680 506 10;
#X obj 33 22 iemnet/udpreceive 8000;
#X obj 93 157 sel 1;
#X obj 234 157 sel 1;
#X obj 374 157 sel 1;
#X obj 33 318 sel 1;
#X obj 195 318 sel 1;
#X obj 373 318 sel 1;
#X obj 93 188 s stop;
#X obj 374 203 s reset;
#X obj 234 257 s start;
#X obj 33 392 s load_dir;
#X obj 171 164 bng 15 250 50 0 empty empty empty 17 7 0 10 -262144
-1 -1;
#X obj 65 176 bng 15 250 50 0 empty empty empty 17 7 0 10 -262144 -1
-1;
#X obj 234 181 t b b b;
#X obj 257 204 delay 500;
#X obj 234 228 delay 1000;
#X msg 33 340 symbol feurio;
#X msg 195 340 symbol prologue;
#X msg 373 340 symbol merle;
#X obj 9 343 bng 15 250 50 0 empty empty empty 17 7 0 10 -262144 -1
-1;
#X obj 33 55 osc/unpackOSC;
#X obj 33 95 osc/routeOSC /1;
#X obj 93 134 osc/routeOSC /push5;
#X obj 234 134 osc/routeOSC /push1;
#X obj 374 134 osc/routeOSC /push3;
#X obj 373 285 osc/routeOSC /push4;
#X obj 195 285 osc/routeOSC /push2;
#X obj 33 285 osc/routeOSC /push6;
#X obj 203 76 print;
#X connect 0 0 20 0;
#X connect 1 0 7 0;
#X connect 2 0 13 0;
#X connect 3 0 8 0;
#X connect 4 0 16 0;
#X connect 4 0 19 0;
#X connect 5 0 17 0;
#X connect 6 0 18 0;
#X connect 11 0 13 0;
#X connect 12 0 7 0;
#X connect 13 0 15 0;
#X connect 13 1 14 0;
#X connect 13 2 9 0;
#X connect 14 0 8 0;
#X connect 15 0 9 0;
#X connect 16 0 10 0;
#X connect 17 0 10 0;
#X connect 18 0 10 0;
#X connect 20 0 21 0;
#X connect 20 0 28 0;
#X connect 21 0 22 0;
#X connect 21 0 23 0;
#X connect 21 0 24 0;
#X connect 21 0 25 0;
#X connect 21 0 26 0;
#X connect 21 0 27 0;
#X connect 22 0 1 0;
#X connect 23 0 2 0;
#X connect 24 0 3 0;
#X connect 25 0 6 0;
#X connect 26 0 5 0;
#X connect 27 0 4 0;
